<svg width="1017" height="112" viewBox="0 0 1017 112" fill="none" xmlns="http://www.w3.org/2000/svg">
<g clip-path="url(#clip0_25_218)">
<path d="M53.04 19.44L80.67 19.48V19.42C87.5567 19.42 90.9967 16.4333 90.99 10.46V0.0499878H80.67L55.05 0C34.36 0 20.17 3.88 11.47 12.75C1.34 23.04 0.09 38.12 0.09 60.39L0 98.59C0 98.7 0 98.8 0 98.91V98.95C0.06 111.28 0.16 111.29 10.87 111.2H23.51V98.95H23.54L23.62 66.02H80.55V66.04C90.93 66.04 90.93 65.94 90.94 57.09V46.7H80.66L23.62 46.69C23.92 27.39 32.95 19.45 53.04 19.45V19.44Z" fill="black"/>
<path d="M155.28 0.0200195C117.72 0.0200195 99.51 17.8 99.51 54.66C99.51 93.64 116.67 111.35 155.13 111.35C193.59 111.35 211.01 93.65 211.01 55.7C211.01 17.75 193.25 0.0200195 155.27 0.0200195H155.28ZM125.21 54.82C125.21 30.5 135 18.41 155.28 18.41C162.1 18.41 167.74 19.72 172.21 22.42L130.17 80.43C126.8 74.25 125.21 65.77 125.21 54.83V54.82ZM155.28 93.08C148.21 93.08 142.51 91.69 138.03 88.9L180.42 31C183.8 37.02 185.47 45.24 185.47 55.71C185.47 80.95 175.96 93.08 155.28 93.08Z" fill="black"/>
<path d="M300.27 64.23C314.76 61.16 322.86 50.19 322.86 33.02C322.86 9.66002 310.12 0.0700073 283.66 0.0700073L226 0.0200195L225.98 98.88H226C226 111.27 226.07 111.28 236.87 111.24H249.51V98.63H249.48V66.88L277.05 67L294.9 100.25H294.94C301.16 111.23 301.36 111.29 315.85 111.17H328.48L321.36 100.22L300.25 64.21L300.27 64.23ZM249.35 47.4V19.41H278.17C292.18 19.41 299.05 21.88 299.05 33.35C299.05 44.82 292.18 47.4 278.17 47.4H249.35Z" fill="black"/>
<path d="M387.74 0.0200195C350.2 0.0200195 331.96 17.72 331.96 54.42C331.96 93.23 349.28 111.09 387.74 111.09C426.2 111.09 443.48 93.23 443.48 55.46C443.48 17.69 425.73 0.0300293 387.74 0.0300293V0.0200195ZM387.83 91.79C366.76 91.79 357.7 80.57 357.7 54.57C357.7 30.35 366.72 19.42 386.97 19.42C407.22 19.42 417.95 30.35 417.95 55.45C417.95 80.55 408.52 91.79 387.82 91.79H387.83Z" fill="black"/>
<path d="M545.17 0.140026L545.25 0.0200311H532.61C519.05 0.0200311 518.93 -0.0499763 511.89 10.7L489.96 42.69L470.62 11.22H470.6C463.27 0.0200129 463.33 0.100018 449.59 0.100018H436.96L444.19 11.22H444.16L478.61 62.33L478.55 98.6401C478.55 111.28 478.55 111.5 489.41 111.48H502.04V98.92H502.06L502.1 62.34L545.28 0.120037L545.16 0.150036L545.17 0.140026Z" fill="black"/>
<path d="M593.97 7.75995H593.94C590.27 0.0799489 589.87 0.0799561 574.64 0.0799561L568.96 0.119965L564.76 9.88995L525.07 98.26L519.13 111.31L532.58 111.29C546.16 111.29 544.71 111.29 549.5 98.9699L555.14 84.8299H603.71L611.26 103.05C614.73 111.26 616.47 111.29 628.33 111.29L642.23 111.31L634.73 97.2L593.98 7.75995H593.97ZM562.71 65.06L579.09 22.45L596.04 65.06H562.71Z" fill="black"/>
<path d="M818.88 64.61V64.59H826.91V53.78C826.91 45.19 826.78 45.23 815.68 45.28V45.3H782.3L771.02 45.29V56.1C771.02 64.54 771.15 64.65 781.67 64.6H818.88V64.61Z" fill="#CA0538"/>
<path d="M672.33 0.0500183L650.43 0.0300293V0.0600281C642.39 0.100028 642.29 0.780041 642.27 9.01004L642.23 19.43L650.44 19.4V19.43L670.89 19.37C681.48 19.37 687.06 20.27 692.11 26.31C695.84 30.71 695.98 37.52 695.98 46.85V98.38C695.967 106.987 699.64 111.297 707 111.31H719.64V99.66H719.65V46.08C719.65 31.05 718.07 21.08 709.45 11.92C699.46 1.16001 688.64 0.0500183 672.34 0.0500183H672.33Z" fill="#CA0538"/>
<path d="M816.14 0.0799561H787.81C751.62 0.0799561 734.86 18.33 734.86 57.68C734.86 77.81 740.51 92.38 752.1 101.51C763.07 110.15 773.55 111.26 787.18 111.26H815.71V111.29C826.82 111.34 826.95 111.38 826.95 102.79V91.9799H815.67H790.08C771.45 91.9799 761.66 84.61 761.48 64.62L761.65 45.31C762.58 27.81 771.19 19.42 788.25 19.42H815.66V19.45H826.94V8.63995C826.94 0.119953 826.94 0.0499658 816.13 0.0899658L816.14 0.0799561Z" fill="#CA0538"/>
<path d="M912.14 91.88L891.69 91.94C881.1 91.94 875.52 91.04 870.47 85C866.74 80.59 866.6 73.79 866.6 64.46V12.93C866.613 4.32333 862.94 0.0133333 855.58 0H842.94V11.65L842.93 65.23C842.93 80.26 844.51 90.23 853.13 99.39C863.12 110.15 873.94 111.26 890.24 111.26L912.14 111.28V111.25C920.18 111.21 920.28 110.53 920.3 102.29L920.34 91.87L912.13 91.9V91.87L912.14 91.88Z" fill="#CA0538"/>
<path d="M1008.45 65.07V65.05H1016.49V54.24C1016.49 45.65 1016.36 45.69 1005.25 45.74V45.76H971.87L960.59 45.75V56.56C960.59 65 960.72 65.11 971.24 65.06H1008.45V65.07Z" fill="#CA0538"/>
<path d="M1016.53 9.07997C1016.53 0.559968 1016.53 0.48998 1005.72 0.52998H977.39C941.2 0.52998 924.44 18.78 924.44 58.13C924.44 78.26 930.09 92.84 941.68 101.96C952.65 110.6 963.13 111.71 976.77 111.71H1005.3V111.74C1016.41 111.78 1016.53 111.83 1016.53 103.24V92.43H1005.25H979.66C961.03 92.43 951.24 85.07 951.06 65.07L951.24 45.76C952.16 28.26 960.77 19.87 977.84 19.87H1005.25V19.89H1016.53V9.07997Z" fill="#CA0538"/>
</g>
<defs>
<clipPath id="clip0_25_218">
<rect width="1016.53" height="111.746" fill="white"/>
</clipPath>
</defs>
</svg>
